<svg width="976" height="117" viewBox="0 0 976 117" fill="none" xmlns="http://www.w3.org/2000/svg">
<path d="M86.4777 38.4123C86.4777 44.9842 84.9694 51.0174 81.9528 56.512C78.9362 61.8988 74.3036 66.2621 68.0549 69.6019C61.8062 72.9418 54.0492 74.6117 44.7838 74.6117H27.6538V115.336H0.0194648V1.88974H44.7838C53.8337 1.88974 61.483 3.45191 67.7317 6.57626C73.9804 9.70061 78.6669 14.0101 81.7912 19.5046C84.9156 24.9991 86.4777 31.3017 86.4777 38.4123ZM42.683 52.6335C47.9621 52.6335 51.8944 51.3945 54.4801 48.9166C57.0658 46.4387 58.3586 42.9372 58.3586 38.4123C58.3586 33.8874 57.0658 30.386 54.4801 27.908C51.8944 25.4301 47.9621 24.1911 42.683 24.1911H27.6538V52.6335H42.683ZM171.485 95.297H129.145L122.358 115.336H93.4305L134.478 1.88974H166.476L207.523 115.336H178.273L171.485 95.297ZM164.375 73.9652L150.315 32.4329L136.417 73.9652H164.375ZM215.329 58.4512C215.329 47.2467 217.753 37.2811 222.602 28.5544C227.45 19.7201 234.183 12.8788 242.802 8.0307C251.529 3.07484 261.387 0.596904 272.376 0.596904C285.843 0.596904 297.37 4.1522 306.959 11.2628C316.548 18.3734 322.958 28.0696 326.19 40.3516H295.808C293.546 35.6112 290.314 32.002 286.112 29.5241C282.018 27.0461 277.332 25.8072 272.052 25.8072C263.541 25.8072 256.646 28.7699 251.367 34.6954C246.088 40.6209 243.449 48.5395 243.449 58.4512C243.449 68.363 246.088 76.2816 251.367 82.2071C256.646 88.1326 263.541 91.0953 272.052 91.0953C277.332 91.0953 282.018 89.8563 286.112 87.3784C290.314 84.9005 293.546 81.2913 295.808 76.5509H326.19C322.958 88.8328 316.548 98.5291 306.959 105.64C297.37 112.643 285.843 116.144 272.376 116.144C261.387 116.144 251.529 113.72 242.802 108.872C234.183 103.916 227.45 97.0747 222.602 88.348C217.753 79.6214 215.329 69.6558 215.329 58.4512ZM408.886 115.336L370.747 65.2386V115.336H343.113V1.88974H370.747V51.6639L408.563 1.88974H441.045L397.089 57.4816L442.661 115.336H408.886ZM526.415 95.297H484.075L477.287 115.336H448.36L489.408 1.88974H521.405L562.453 115.336H533.202L526.415 95.297ZM519.304 73.9652L505.245 32.4329L491.347 73.9652H519.304ZM650.253 37.7659C648.206 33.9951 645.243 31.1401 641.365 29.2009C637.594 27.1539 633.123 26.1304 627.952 26.1304C619.01 26.1304 611.845 29.0931 606.458 35.0186C601.072 40.8364 598.378 48.6472 598.378 58.4512C598.378 68.9016 601.179 77.0896 606.782 83.0151C612.492 88.8328 620.302 91.7417 630.214 91.7417C637.002 91.7417 642.712 90.0179 647.344 86.5704C652.085 83.1228 655.532 78.167 657.687 71.7028H622.619V51.3406H682.736V77.0357C680.689 83.9308 677.187 90.3411 672.231 96.2666C667.383 102.192 661.188 106.986 653.647 110.649C646.105 114.312 637.594 116.144 628.113 116.144C616.909 116.144 606.889 113.72 598.055 108.872C589.328 103.916 582.487 97.0747 577.531 88.348C572.683 79.6214 570.259 69.6558 570.259 58.4512C570.259 47.2467 572.683 37.2811 577.531 28.5544C582.487 19.7201 589.328 12.8788 598.055 8.0307C606.782 3.07484 616.747 0.596904 627.952 0.596904C641.527 0.596904 652.947 3.88286 662.212 10.4548C671.585 17.0267 677.78 26.1304 680.796 37.7659H650.253ZM725.677 1.88974V115.336H698.043V1.88974H725.677ZM847.191 115.336H819.556L773.338 45.3613V115.336H745.703V1.88974H773.338L819.556 72.1876V1.88974H847.191V115.336ZM942.53 37.7659C940.483 33.9951 937.52 31.1401 933.641 29.2009C929.871 27.1539 925.4 26.1304 920.228 26.1304C911.286 26.1304 904.122 29.0931 898.735 35.0186C893.348 40.8364 890.655 48.6472 890.655 58.4512C890.655 68.9016 893.456 77.0896 899.058 83.0151C904.768 88.8328 912.579 91.7417 922.491 91.7417C929.278 91.7417 934.988 90.0179 939.621 86.5704C944.361 83.1228 947.809 78.167 949.963 71.7028H914.895V51.3406H975.012V77.0357C972.965 83.9308 969.464 90.3411 964.508 96.2666C959.66 102.192 953.465 106.986 945.923 110.649C938.382 114.312 929.871 116.144 920.39 116.144C909.185 116.144 899.166 113.72 890.331 108.872C881.605 103.916 874.764 97.0747 869.808 88.348C864.96 79.6214 862.536 69.6558 862.536 58.4512C862.536 47.2467 864.96 37.2811 869.808 28.5544C874.764 19.7201 881.605 12.8788 890.331 8.0307C899.058 3.07484 909.024 0.596904 920.228 0.596904C933.803 0.596904 945.223 3.88286 954.488 10.4548C963.861 17.0267 970.056 26.1304 973.073 37.7659H942.53Z" fill="black"/>
</svg>
