<svg width="748" height="117" viewBox="0 0 748 117" fill="none" xmlns="http://www.w3.org/2000/svg">
<path d="M86.4777 38.4123C86.4777 44.9842 84.9694 51.0174 81.9528 56.512C78.9362 61.8988 74.3036 66.2621 68.0549 69.6019C61.8062 72.9418 54.0492 74.6117 44.7838 74.6117H27.6538V115.336H0.0194648V1.88974H44.7838C53.8337 1.88974 61.483 3.45191 67.7317 6.57626C73.9804 9.70061 78.6669 14.0101 81.7912 19.5046C84.9156 24.9991 86.4777 31.3017 86.4777 38.4123ZM42.683 52.6335C47.9621 52.6335 51.8944 51.3945 54.4801 48.9166C57.0658 46.4387 58.3586 42.9372 58.3586 38.4123C58.3586 33.8874 57.0658 30.386 54.4801 27.908C51.8944 25.4301 47.9621 24.1911 42.683 24.1911H27.6538V52.6335H42.683ZM158.719 115.336L135.124 72.5108H128.499V115.336H100.864V1.88974H147.245C156.187 1.88974 163.782 3.45191 170.031 6.57626C176.387 9.70061 181.128 14.0101 184.252 19.5046C187.376 24.8914 188.939 30.9246 188.939 37.6043C188.939 45.1458 186.784 51.8793 182.474 57.8048C178.273 63.7303 172.024 67.932 163.728 70.4099L189.908 115.336H158.719ZM128.499 52.9567H145.629C150.692 52.9567 154.463 51.7177 156.941 49.2398C159.527 46.7619 160.819 43.2604 160.819 38.7355C160.819 34.4261 159.527 31.0324 156.941 28.5544C154.463 26.0765 150.692 24.8375 145.629 24.8375H128.499V52.9567ZM233.92 1.88974V115.336H206.286V1.88974H233.92ZM355.434 115.336H327.8L281.581 45.3613V115.336H253.946V1.88974H281.581L327.8 72.1876V1.88974H355.434V115.336ZM457.075 1.88974V24.0295H427.017V115.336H399.383V24.0295H369.324V1.88974H457.075ZM498.579 1.88974V115.336H470.944V1.88974H498.579ZM620.093 115.336H592.458L546.239 45.3613V115.336H518.605V1.88974H546.239L592.458 72.1876V1.88974H620.093V115.336ZM715.431 37.7659C713.384 33.9951 710.422 31.1401 706.543 29.2009C702.772 27.1539 698.301 26.1304 693.13 26.1304C684.188 26.1304 677.023 29.0931 671.637 35.0186C666.25 40.8364 663.556 48.6472 663.556 58.4512C663.556 68.9016 666.358 77.0896 671.96 83.0151C677.67 88.8328 685.481 91.7417 695.392 91.7417C702.18 91.7417 707.89 90.0179 712.523 86.5704C717.263 83.1228 720.71 78.167 722.865 71.7028H687.797V51.3406H747.914V77.0357C745.867 83.9308 742.365 90.3411 737.41 96.2666C732.561 102.192 726.367 106.986 718.825 110.649C711.284 114.312 702.772 116.144 693.292 116.144C682.087 116.144 672.068 113.72 663.233 108.872C654.507 103.916 647.665 97.0747 642.71 88.348C637.861 79.6214 635.437 69.6558 635.437 58.4512C635.437 47.2467 637.861 37.2811 642.71 28.5544C647.665 19.7201 654.507 12.8788 663.233 8.0307C671.96 3.07484 681.925 0.596904 693.13 0.596904C706.705 0.596904 718.125 3.88286 727.39 10.4548C736.763 17.0267 742.958 26.1304 745.975 37.7659H715.431Z" fill="black"/>
</svg>
