<svg width="1060" height="117" viewBox="0 0 1060 117" fill="none" xmlns="http://www.w3.org/2000/svg">
<path d="M86.4777 38.4123C86.4777 44.9842 84.9694 51.0174 81.9528 56.512C78.9362 61.8988 74.3036 66.2621 68.0549 69.6019C61.8062 72.9418 54.0492 74.6117 44.7838 74.6117H27.6538V115.336H0.0194648V1.88974H44.7838C53.8337 1.88974 61.483 3.45191 67.7317 6.57626C73.9804 9.70061 78.6669 14.0101 81.7912 19.5046C84.9156 24.9991 86.4777 31.3017 86.4777 38.4123ZM42.683 52.6335C47.9621 52.6335 51.8944 51.3945 54.4801 48.9166C57.0658 46.4387 58.3586 42.9372 58.3586 38.4123C58.3586 33.8874 57.0658 30.386 54.4801 27.908C51.8944 25.4301 47.9621 24.1911 42.683 24.1911H27.6538V52.6335H42.683ZM158.719 115.336L135.124 72.5108H128.499V115.336H100.864V1.88974H147.245C156.187 1.88974 163.782 3.45191 170.031 6.57626C176.387 9.70061 181.128 14.0101 184.252 19.5046C187.376 24.8914 188.939 30.9246 188.939 37.6043C188.939 45.1458 186.784 51.8793 182.474 57.8048C178.273 63.7303 172.024 67.932 163.728 70.4099L189.908 115.336H158.719ZM128.499 52.9567H145.629C150.692 52.9567 154.463 51.7177 156.941 49.2398C159.527 46.7619 160.819 43.2604 160.819 38.7355C160.819 34.4261 159.527 31.0324 156.941 28.5544C154.463 26.0765 150.692 24.8375 145.629 24.8375H128.499V52.9567ZM259.938 116.467C249.273 116.467 239.469 113.989 230.526 109.033C221.692 104.078 214.635 97.1824 209.356 88.348C204.185 79.4059 201.599 69.3865 201.599 58.2896C201.599 47.1928 204.185 37.2272 209.356 28.3928C214.635 19.5585 221.692 12.6634 230.526 7.7075C239.469 2.75163 249.273 0.2737 259.938 0.2737C270.604 0.2737 280.354 2.75163 289.189 7.7075C298.131 12.6634 305.134 19.5585 310.197 28.3928C315.369 37.2272 317.954 47.1928 317.954 58.2896C317.954 69.3865 315.369 79.4059 310.197 88.348C305.026 97.1824 298.023 104.078 289.189 109.033C280.354 113.989 270.604 116.467 259.938 116.467ZM259.938 91.2569C268.988 91.2569 276.207 88.2403 281.593 82.2071C287.088 76.1738 289.835 68.2014 289.835 58.2896C289.835 48.2702 287.088 40.2977 281.593 34.3722C276.207 28.339 268.988 25.3224 259.938 25.3224C250.781 25.3224 243.455 28.2851 237.96 34.2106C232.573 40.1361 229.88 48.1624 229.88 58.2896C229.88 68.3091 232.573 76.3354 237.96 82.3687C243.455 88.2942 250.781 91.2569 259.938 91.2569ZM375.83 1.88974C387.789 1.88974 398.239 4.25994 407.181 9.00032C416.124 13.7407 423.019 20.4204 427.867 29.0393C432.823 37.5504 435.301 47.4083 435.301 58.6128C435.301 69.7097 432.823 79.5675 427.867 88.1864C423.019 96.8053 416.07 103.485 407.02 108.225C398.078 112.966 387.681 115.336 375.83 115.336H333.328V1.88974H375.83ZM374.053 91.4185C384.503 91.4185 392.637 88.5635 398.455 82.8535C404.273 77.1435 407.181 69.0632 407.181 58.6128C407.181 48.1624 404.273 40.0283 398.455 34.2106C392.637 28.3928 384.503 25.484 374.053 25.484H360.963V91.4185H374.053ZM477.893 1.88974V69.7635C477.893 76.5509 479.563 81.7761 482.903 85.4391C486.243 89.1022 491.145 90.9337 497.609 90.9337C504.073 90.9337 509.029 89.1022 512.477 85.4391C515.924 81.7761 517.648 76.5509 517.648 69.7635V1.88974H545.282V69.6019C545.282 79.7291 543.128 88.2942 538.818 95.297C534.509 102.3 528.691 107.579 521.365 111.134C514.147 114.69 506.066 116.467 497.124 116.467C488.182 116.467 480.156 114.743 473.045 111.296C466.042 107.741 460.494 102.461 456.4 95.4586C452.306 88.348 450.259 79.7291 450.259 69.6019V1.88974H477.893ZM560.001 58.4512C560.001 47.2467 562.425 37.2811 567.273 28.5544C572.121 19.7201 578.855 12.8788 587.474 8.0307C596.2 3.07484 606.058 0.596904 617.047 0.596904C630.514 0.596904 642.042 4.1522 651.631 11.2628C661.219 18.3734 667.629 28.0696 670.862 40.3516H640.48C638.217 35.6112 634.985 32.002 630.784 29.5241C626.69 27.0461 622.003 25.8072 616.724 25.8072C608.213 25.8072 601.318 28.7699 596.039 34.6954C590.76 40.6209 588.12 48.5395 588.12 58.4512C588.12 68.363 590.76 76.2816 596.039 82.2071C601.318 88.1326 608.213 91.0953 616.724 91.0953C622.003 91.0953 626.69 89.8563 630.784 87.3784C634.985 84.9005 638.217 81.2913 640.48 76.5509H670.862C667.629 88.8328 661.219 98.5291 651.631 105.64C642.042 112.643 630.514 116.144 617.047 116.144C606.058 116.144 596.2 113.72 587.474 108.872C578.855 103.916 572.121 97.0747 567.273 88.348C562.425 79.6214 560.001 69.6558 560.001 58.4512ZM769.395 1.88974V24.0295H739.336V115.336H711.702V24.0295H681.644V1.88974H769.395ZM810.898 1.88974V115.336H783.264V1.88974H810.898ZM884.577 116.467C873.911 116.467 864.107 113.989 855.165 109.033C846.33 104.078 839.274 97.1824 833.995 88.348C828.823 79.4059 826.238 69.3865 826.238 58.2896C826.238 47.1928 828.823 37.2272 833.995 28.3928C839.274 19.5585 846.33 12.6634 855.165 7.7075C864.107 2.75163 873.911 0.2737 884.577 0.2737C895.243 0.2737 904.993 2.75163 913.827 7.7075C922.769 12.6634 929.772 19.5585 934.836 28.3928C940.007 37.2272 942.593 47.1928 942.593 58.2896C942.593 69.3865 940.007 79.4059 934.836 88.348C929.664 97.1824 922.662 104.078 913.827 109.033C904.993 113.989 895.243 116.467 884.577 116.467ZM884.577 91.2569C893.627 91.2569 900.845 88.2403 906.232 82.2071C911.726 76.1738 914.474 68.2014 914.474 58.2896C914.474 48.2702 911.726 40.2977 906.232 34.3722C900.845 28.339 893.627 25.3224 884.577 25.3224C875.419 25.3224 868.093 28.2851 862.599 34.2106C857.212 40.1361 854.518 48.1624 854.518 58.2896C854.518 68.3091 857.212 76.3354 862.599 82.3687C868.093 88.2942 875.419 91.2569 884.577 91.2569ZM1059.45 115.336H1031.82L985.601 45.3613V115.336H957.967V1.88974H985.601L1031.82 72.1876V1.88974H1059.45V115.336Z" fill="black"/>
</svg>
