<svg width="138" height="18" viewBox="0 0 138 18" fill="none" xmlns="http://www.w3.org/2000/svg">
<g id="star">
<path id="Vector" d="M9.31727 0L12.1963 5.83318L18.6345 6.77432L13.9759 11.3123L15.0753 17.7232L9.31727 14.6948L3.5592 17.7232L4.65863 11.3123L0 6.77432L6.43823 5.83318L9.31727 0Z" fill="#FFF383"/>
<path id="Vector_2" d="M39.1327 0L42.0117 5.83318L48.45 6.77432L43.7913 11.3123L44.8908 17.7232L39.1327 14.6948L33.3746 17.7232L34.4741 11.3123L29.8154 6.77432L36.2537 5.83318L39.1327 0Z" fill="#FFF383"/>
<path id="Vector_3" d="M68.9481 0L71.8272 5.83318L78.2654 6.77432L73.6068 11.3123L74.7062 17.7232L68.9481 14.6948L63.1901 17.7232L64.2895 11.3123L59.6309 6.77432L66.0691 5.83318L68.9481 0Z" fill="#FFF383"/>
<path id="Vector_4" d="M98.7626 0L101.642 5.83318L108.08 6.77432L103.421 11.3123L104.521 17.7232L98.7626 14.6948L93.0045 17.7232L94.1039 11.3123L89.4453 6.77432L95.8835 5.83318L98.7626 0Z" fill="#FFF383"/>
<path id="Vector_5" d="M128.578 0L131.457 5.83318L137.895 6.77432L133.237 11.3123L134.336 17.7232L128.578 14.6948L122.82 17.7232L123.919 11.3123L119.261 6.77432L125.699 5.83318L128.578 0Z" fill="#FFF383"/>
</g>
</svg>
