<svg width="50" height="50" viewBox="0 0 50 50" fill="none" xmlns="http://www.w3.org/2000/svg">
<path d="M43.7474 24.2614V43.7494C43.7474 44.9 42.8147 45.8327 41.6641 45.8327H8.33073C7.18015 45.8327 6.2474 44.9 6.2474 43.7494V24.2614C4.95081 22.7925 4.16406 20.8627 4.16406 18.7493V6.24935C4.16406 5.09877 5.09681 4.16602 6.2474 4.16602H43.7474C44.898 4.16602 45.8307 5.09877 45.8307 6.24935V18.7493C45.8307 20.8627 45.0441 22.7925 43.7474 24.2614ZM39.5807 26.8202C38.9149 26.9914 38.2168 27.0827 37.4974 27.0827C35.0084 27.0827 32.7743 25.9914 31.2474 24.2614C29.7205 25.9914 27.4864 27.0827 24.9974 27.0827C22.5084 27.0827 20.2744 25.9914 18.7474 24.2614C17.2204 25.9914 14.9863 27.0827 12.4974 27.0827C11.778 27.0827 11.0799 26.9914 10.4141 26.8202V41.666H39.5807V26.8202ZM29.1641 18.7493C29.1641 17.5988 30.0968 16.666 31.2474 16.666C32.398 16.666 33.3307 17.5988 33.3307 18.7493C33.3307 21.0506 35.1961 22.916 37.4974 22.916C39.7986 22.916 41.6641 21.0506 41.6641 18.7493V8.33268H8.33073V18.7493C8.33073 21.0506 10.1962 22.916 12.4974 22.916C14.7986 22.916 16.6641 21.0506 16.6641 18.7493C16.6641 17.5988 17.5968 16.666 18.7474 16.666C19.898 16.666 20.8307 17.5988 20.8307 18.7493C20.8307 21.0506 22.6961 22.916 24.9974 22.916C27.2986 22.916 29.1641 21.0506 29.1641 18.7493Z" fill="#FD7D7D"/>
</svg>
