<svg width="50" height="50" viewBox="0 0 50 50" fill="none" xmlns="http://www.w3.org/2000/svg">
<path d="M4.1875 10.6281C4.1875 11.8349 4.66687 12.9922 5.52017 13.8455C6.37346 14.6988 7.53077 15.1781 8.7375 15.1781C9.94423 15.1781 11.1015 14.6988 11.9548 13.8455C12.8081 12.9922 13.2875 11.8349 13.2875 10.6281C13.2875 9.4214 12.8081 8.26408 11.9548 7.41079C11.1015 6.5575 9.94423 6.07812 8.7375 6.07812C7.53077 6.07812 6.37346 6.5575 5.52017 7.41079C4.66687 8.26408 4.1875 9.4214 4.1875 10.6281Z" stroke="#FD7D7D" stroke-width="3" stroke-linecap="round" stroke-linejoin="round"/>
<path d="M15.9125 21.2163C15.4539 20.1413 14.7595 19.1832 13.8807 18.4128C13.0019 17.6424 11.9611 17.0793 10.8354 16.7653C9.70973 16.4513 8.52781 16.3943 7.37712 16.5986C6.22642 16.8028 5.13633 17.2632 4.1875 17.9455" stroke="#FD7D7D" stroke-width="3" stroke-linecap="round" stroke-linejoin="round"/>
<path d="M36.7109 10.6281C36.7109 11.8349 37.1903 12.9922 38.0436 13.8455C38.897 14.6988 40.0543 15.1781 41.2609 15.1781C42.4678 15.1781 43.6251 14.6988 44.4784 13.8455C45.3316 12.9922 45.8109 11.8349 45.8109 10.6281C45.8109 9.4214 45.3316 8.26408 44.4784 7.41079C43.6251 6.5575 42.4678 6.07812 41.2609 6.07812C40.0543 6.07812 38.897 6.5575 38.0436 7.41079C37.1903 8.26408 36.7109 9.4214 36.7109 10.6281Z" stroke="#FD7D7D" stroke-width="3" stroke-linecap="round" stroke-linejoin="round"/>
<path d="M34.0938 21.2163C34.5523 20.1413 35.2467 19.1832 36.1254 18.4128C37.0044 17.6424 38.045 17.0793 39.1706 16.7653C40.2965 16.4513 41.4783 16.3943 42.629 16.5986C43.7798 16.8028 44.8698 17.2632 45.8188 17.9455" stroke="#FD7D7D" stroke-width="3" stroke-linecap="round" stroke-linejoin="round"/>
<path d="M18.0469 8.51458C18.0469 9.42754 18.2267 10.3316 18.5761 11.175C18.9255 12.0185 19.4375 12.7849 20.0831 13.4305C20.7287 14.076 21.4951 14.5881 22.3384 14.9375C23.182 15.2869 24.0859 15.4667 24.999 15.4667C25.912 15.4667 26.8159 15.2869 27.6595 14.9375C28.5028 14.5881 29.2692 14.076 29.9149 13.4305C30.5603 12.7849 31.0724 12.0185 31.4217 11.175C31.7711 10.3316 31.9511 9.42754 31.9511 8.51458C31.9511 7.60162 31.7711 6.6976 31.4217 5.85415C31.0724 5.01067 30.5603 4.24427 29.9149 3.59871C29.2692 2.95317 28.5028 2.44106 27.6595 2.09169C26.8159 1.74232 25.912 1.5625 24.999 1.5625C24.0859 1.5625 23.182 1.74232 22.3384 2.09169C21.4951 2.44106 20.7287 2.95317 20.0831 3.59871C19.4375 4.24427 18.9255 5.01067 18.5761 5.85415C18.2267 6.6976 18.0469 7.60162 18.0469 8.51458Z" stroke="#FD7D7D" stroke-width="3" stroke-linecap="round" stroke-linejoin="round"/>
<path d="M37.023 23.875C35.4989 22.2004 33.6418 20.8625 31.5707 19.9469C29.4997 19.0315 27.2601 18.5586 24.9959 18.5586C22.7316 18.5586 20.492 19.0315 18.421 19.9469C16.3499 20.8625 14.4929 22.2004 12.9688 23.875" stroke="#FD7D7D" stroke-width="3" stroke-linecap="round" stroke-linejoin="round"/>
<path d="M33.239 28.8672C33.2046 31.0301 32.3213 33.0928 30.7796 34.6101C29.2379 36.1274 27.1615 36.9778 24.9983 36.9778C22.8352 36.9778 20.7589 36.1274 19.2172 34.6101C17.6755 33.0928 16.7922 31.0301 16.7578 28.8672" stroke="#FD7D7D" stroke-width="3" stroke-linecap="round" stroke-linejoin="round"/>
<path d="M44.5709 28.8594V31.9573L41.0292 32.6656C40.6205 34.3827 39.9359 36.0221 39.0021 37.5198L41.0209 40.5281L36.6459 44.9031L33.6396 42.8844C32.1415 43.8262 30.4988 44.5154 28.7771 44.924L28.0771 48.4469H21.9105L21.2084 44.924C19.4874 44.515 17.8453 43.826 16.3479 42.8844L13.3333 44.8948L8.95833 40.5198L10.9771 37.5115C10.0426 36.0137 9.35731 34.3744 8.94792 32.6573L5.40625 31.949V28.8594" stroke="#FD7D7D" stroke-width="3" stroke-linecap="round" stroke-linejoin="round"/>
</svg>
