<svg width="50" height="50" viewBox="0 0 50 50" fill="none" xmlns="http://www.w3.org/2000/svg">
<path d="M35.4219 4.16602C36.5725 4.16602 37.5052 5.09874 37.5052 6.24935V14.5827H43.7552C44.9058 14.5827 45.8385 15.5154 45.8385 16.666V27.7583C45.4646 27.2421 45.0404 26.7466 44.5658 26.2721C43.6748 25.381 42.71 24.6673 41.6719 24.131V18.7493H8.33854V35.416H12.5052V33.3327C12.5052 32.1821 13.438 31.2494 14.5885 31.2494H25.409C25.3558 31.4437 25.3081 31.6404 25.2654 31.8389C24.3696 32.4316 23.576 33.1775 22.8852 34.0764C22.5527 34.5091 22.2608 34.9556 22.0094 35.416H16.6719V41.666H20.9513C21.1777 43.1908 21.7452 44.5796 22.6542 45.8327H14.5885C13.438 45.8327 12.5052 44.9 12.5052 43.7494V39.5827H6.25521C5.1046 39.5827 4.17188 38.65 4.17188 37.4994V16.666C4.17188 15.5154 5.1046 14.5827 6.25521 14.5827H12.5052V6.24935C12.5052 5.09874 13.438 4.16602 14.5885 4.16602H35.4219ZM33.3385 8.33268H16.6719V14.5827H33.3385V8.33268ZM16.6719 20.8327V24.9994H10.4219V20.8327H16.6719ZM43.7552 34.3744C43.7552 30.3473 40.4906 27.0827 36.4635 27.0827C32.4365 27.0827 29.1719 30.3473 29.1719 34.3744L29.179 34.5879C26.7706 35.2658 25.0052 37.4785 25.0052 40.1035C25.0052 43.1504 27.3838 45.6419 30.3854 45.8223L30.7344 45.8327H42.1927L42.5417 45.8223C45.5433 45.6419 47.9219 43.1504 47.9219 40.1035C47.9219 37.4791 46.1575 35.2671 43.7521 34.5896L43.7552 34.3744ZM33.3529 34.0733C33.5044 32.4887 34.8392 31.2494 36.4635 31.2494C38.0879 31.2494 39.4227 32.4887 39.5742 34.0733L39.5885 34.3744V37.7494C41.0385 38.1637 42.0415 38.4454 42.5971 38.5944C43.4306 38.8177 43.9252 39.6744 43.7019 40.5079C43.5158 41.2025 42.8898 41.6619 42.204 41.6664H30.7231C30.0373 41.6619 29.4112 41.2025 29.2252 40.5079C29.0017 39.6744 29.4965 38.8177 30.33 38.5944C30.824 38.4619 31.6712 38.2248 32.8717 37.8825L33.3385 37.7494V34.3744L33.3529 34.0733Z" fill="#FD7D7D"/>
</svg>
