<svg width="205" height="46" viewBox="0 0 205 46" fill="none" xmlns="http://www.w3.org/2000/svg">
<path d="M62.7001 36.1636H58.0261V12.1502H62.7001V36.1636ZM92.0016 36.1636H87.3276V20.245L81.1295 32.0993H78.5893L72.3912 20.245V36.1636H67.7172V12.1163H72.7299L79.8425 25.7996L87.0228 12.1163H92.0016V36.1636ZM101.696 36.1636H97.0222V12.1163H107.217C111.654 12.1163 114.871 16.1807 114.871 20.1095C114.871 24.2077 111.857 28.1027 107.386 28.1027H101.696V36.1636ZM101.696 16.2145V24.0045H107.115C108.843 24.0045 110.13 22.4804 110.13 20.1095C110.13 17.637 108.572 16.2145 106.912 16.2145H101.696ZM122.732 36.1636H118.058V12.1163H128.693C133.13 12.1163 136.348 16.1807 136.348 20.1095C136.348 23.1916 134.654 26.0028 132.012 27.1205L137.669 36.1636H132.385L127.338 28.1027H122.732V36.1636ZM122.732 16.2145V24.0045H128.592C130.319 24.0045 131.64 22.2771 131.64 20.1095C131.64 17.8741 130.048 16.2145 128.388 16.2145H122.732ZM145.554 36.1636H140.88V12.1502H145.554V36.1636ZM167.608 36.1636L155.245 20.753V36.1636H150.571V12.1163H154.195L166.727 27.8995V12.1502H171.401V36.1636H167.608ZM194.388 12.1163V16.2145H186.734V36.1636H182.06V16.2145H174.371V12.1163H194.388Z" fill="white"/>
<path d="M199.752 11.4964C197.672 11.4964 196.133 9.99652 196.133 7.99339C196.133 5.99994 197.672 4.50969 199.752 4.50969C201.871 4.50969 203.449 5.99994 203.449 7.99339C203.449 9.99652 201.871 11.4964 199.752 11.4964ZM199.752 11.0126C201.533 11.0126 202.916 9.78363 202.916 8.00307C202.916 6.3096 201.571 4.99354 199.752 4.99354C197.981 4.99354 196.655 6.3096 196.655 8.00307C196.655 9.69654 197.972 11.0126 199.752 11.0126ZM199.839 10.3062C198.397 10.3062 197.401 9.29978 197.401 7.99339C197.401 6.82248 198.213 5.69028 199.82 5.69028C200.846 5.69028 201.61 6.17412 201.958 6.92893L200.7 7.316C200.507 6.91925 200.13 6.79345 199.81 6.79345C199.133 6.79345 198.726 7.34504 198.726 7.99339C198.726 8.76755 199.288 9.20301 199.82 9.20301C200.188 9.20301 200.555 8.9998 200.739 8.6611L201.997 9.0385C201.697 9.69654 200.933 10.3062 199.839 10.3062Z" fill="white"/>
<g clip-path="url(#clip0_122_53)">
<rect x="-0.00134277" width="45.8038" height="45.8038" rx="5.55198" fill="#221F20"/>
<rect width="45.8038" height="45.8038" fill="#D9D9D9"/>
<rect x="8.32764" y="20.8198" width="12.4919" height="20.8199" fill="white"/>
<circle cx="14.5738" cy="11.7975" r="7.63397" fill="#D9D9D9"/>
<circle cx="14.5738" cy="11.7975" r="7.63397" fill="#221F20"/>
<path fill-rule="evenodd" clip-rule="evenodd" d="M26.3719 19.2788C27.0446 19.379 27.7408 19.4315 28.4538 19.4315C34.203 19.4315 38.8637 16.0137 38.8637 11.7975C38.8637 7.58142 34.203 4.16357 28.4538 4.16357C27.7408 4.16357 27.0446 4.21613 26.3719 4.31626V19.2788Z" fill="#D9D9D9"/>
<path fill-rule="evenodd" clip-rule="evenodd" d="M26.3719 19.2788C27.0446 19.379 27.7408 19.4315 28.4538 19.4315C34.203 19.4315 38.8637 16.0137 38.8637 11.7975C38.8637 7.58142 34.203 4.16357 28.4538 4.16357C27.7408 4.16357 27.0446 4.21613 26.3719 4.31626V19.2788Z" fill="#221F20"/>
<rect x="8.05811" y="20.7812" width="13.1474" height="21.2055" fill="#393939"/>
</g>
<defs>
<clipPath id="clip0_122_53">
<rect width="45.8038" height="45.8038" rx="4.24109" fill="white"/>
</clipPath>
</defs>
</svg>
