<svg width="203" height="47" viewBox="0 0 203 47" fill="none" xmlns="http://www.w3.org/2000/svg">
<path d="M57.2303 36.0791V12.3616H61.8401V36.0791H57.2303ZM86.1299 36.0791V20.5124L80.0502 32.1039H77.4781L71.3984 20.5124V36.0791H66.7885V12.3616H71.7324L78.7474 25.8572L85.8293 12.3616H90.7398V36.0791H86.1299ZM95.6916 36.0791V12.3616H105.746C106.838 12.3616 107.84 12.5843 108.753 13.0297C109.666 13.4751 110.457 14.0764 111.125 14.8336C111.815 15.5907 112.349 16.437 112.728 17.3723C113.107 18.3077 113.296 19.2653 113.296 20.2452C113.296 21.5813 112.984 22.8507 112.361 24.0533C111.737 25.2559 110.88 26.2358 109.788 26.9929C108.697 27.7501 107.406 28.1287 105.913 28.1287H100.301V36.0791H95.6916ZM100.301 24.0867H105.646C106.203 24.0867 106.704 23.9308 107.149 23.619C107.595 23.3073 107.951 22.8619 108.218 22.2829C108.486 21.6816 108.619 21.0023 108.619 20.2452C108.619 19.4212 108.463 18.7197 108.152 18.1406C107.862 17.5616 107.472 17.1274 106.982 16.8379C106.515 16.5483 106.003 16.4036 105.446 16.4036H100.301V24.0867ZM116.504 36.0791V12.3616H126.993C128.085 12.3616 129.087 12.5843 130 13.0297C130.935 13.4751 131.737 14.0764 132.405 14.8336C133.095 15.5907 133.619 16.437 133.975 17.3723C134.354 18.3077 134.543 19.2653 134.543 20.2452C134.543 21.2473 134.365 22.216 134.009 23.1514C133.674 24.0644 133.185 24.8662 132.539 25.5565C131.893 26.2469 131.136 26.7814 130.267 27.16L135.679 36.0791H130.601L125.724 28.1287H121.114V36.0791H116.504ZM121.114 24.0867H126.893C127.472 24.0867 127.985 23.9197 128.43 23.5856C128.875 23.2293 129.232 22.7617 129.499 22.1826C129.766 21.6036 129.9 20.9578 129.9 20.2452C129.9 19.488 129.744 18.831 129.432 18.2743C129.12 17.6952 128.719 17.2387 128.229 16.9047C127.762 16.5706 127.25 16.4036 126.693 16.4036H121.114V24.0867ZM138.72 36.0791V12.3616H143.33V36.0791H138.72ZM152.888 20.8464V36.0791H148.278V12.3616H151.953L164.212 27.9951V12.395H168.822V36.0791H164.981L152.888 20.8464ZM191.494 16.4036H183.911V36.0791H179.335V16.4036H171.752V12.3616H191.494V16.4036Z" fill="#6B6B6B"/>
<path d="M197.013 12.4347C194.961 12.4347 193.443 10.9553 193.443 8.97965C193.443 7.01353 194.961 5.54372 197.013 5.54372C199.103 5.54372 200.659 7.01353 200.659 8.97965C200.659 10.9553 199.103 12.4347 197.013 12.4347ZM197.013 11.9575C198.769 11.9575 200.134 10.7453 200.134 8.98919C200.134 7.31895 198.807 6.02093 197.013 6.02093C195.266 6.02093 193.959 7.31895 193.959 8.98919C193.959 10.6594 195.257 11.9575 197.013 11.9575ZM197.099 11.2607C195.677 11.2607 194.694 10.2681 194.694 8.97965C194.694 7.82479 195.495 6.70812 197.08 6.70812C198.091 6.70812 198.845 7.18533 199.189 7.92978L197.948 8.31155C197.757 7.92024 197.385 7.79616 197.07 7.79616C196.402 7.79616 196.001 8.34018 196.001 8.97965C196.001 9.74319 196.555 10.1727 197.08 10.1727C197.442 10.1727 197.805 9.97225 197.986 9.6382L199.227 10.0104C198.931 10.6594 198.177 11.2607 197.099 11.2607Z" fill="#221F20"/>
<rect y="0.972183" width="45.1757" height="45.1757" rx="5.47584" fill="white"/>
<rect x="8.21362" y="21.5066" width="12.3206" height="20.5344" fill="black"/>
<circle cx="14.374" cy="12.6084" r="7.52928" fill="#5C5C5C"/>
<path fill-rule="evenodd" clip-rule="evenodd" d="M26.0103 19.987C26.6737 20.0858 27.3605 20.1376 28.0637 20.1376C33.7341 20.1376 38.3309 16.7667 38.3309 12.6084C38.3309 8.45005 33.7341 5.07907 28.0637 5.07907C27.3605 5.07907 26.6737 5.13092 26.0103 5.22968V19.987Z" fill="#5A5252"/>
</svg>
